<svg version="1.0" xmlns="http://www.w3.org/2000/svg" width="5773.333" height="4618.667" viewBox="0 0 4330 3464"><path d="M3034.3 400.5c-28.5 5.4-56.6 18.4-93.2 42.8-61.9 41.3-133.1 109.2-204.2 194.7-114.9 138.1-251.1 303.5-310.5 377-182.3 225.6-322.6 418.2-449.5 617.2l-9.4 14.7-25.4 22.2c-23.3 20.4-26.1 23.2-34.3 34.5-5 6.7-8.9 12.6-8.7 13.1.2.4 9.6 7.3 20.9 15.2 59.5 41.8 120.6 89.7 175 137.1 8.5 7.4 16.3 14.1 17.2 14.8 1.4 1.1 2.9-.3 11.8-11 9.6-11.6 11-13.9 25.4-42 14.4-28.3 15.6-30.2 22.7-37.5 30.3-31.4 87.9-93.9 127-137.8 135.3-151.9 257.1-302.7 421-521.6 45.5-60.8 54.9-73.5 96.6-129.9 14.8-20.1 54.6-73.9 88.3-119.5 33.8-45.7 66.4-90 72.5-98.5 110.4-153.4 158.9-266.4 142.1-331.2-6.7-25.9-24.2-45.6-47.1-52.8-8.9-2.8-27.6-3.6-38.2-1.5zM1874.1 1749.5c-2.2 3-4.1 5.8-4.1 6.2 0 .4 3.1 2.8 6.7 5.3 52.2 35.1 128.8 94.6 187.2 145.4l18.4 16 4.9-5.5c2.6-2.9 4.8-5.7 4.8-6 0-1.2-33.7-30.4-61.5-53.3-25.4-21-49.1-39.6-78.1-61.3-32.1-24-71.8-52.3-73.4-52.3-.4 0-2.6 2.5-4.9 5.5zM1851.1 1780.9c-2.8 3.8-5.1 7.1-5.1 7.3 0 .3 3.5 3 7.8 5.9 60.3 41.6 135.5 100.1 188.9 147.2 7.3 6.5 13.6 11.7 14 11.7.8-.1 8.9-9.8 10.6-12.6 1.5-2.6-66.1-59.6-118.8-100-29.1-22.4-89.8-66.3-91.7-66.4-.3 0-2.9 3.1-5.7 6.9zM1755 1910.7c-45.9 62-98.4 132.8-116.5 157.3l-33.1 44.5-11.6.6c-32.9 1.8-49.2 10.9-55.8 31.1-1.9 5.8-2.6 6.6-6.9 9-5.8 3.3-13.7 11.5-15.8 16.6-5.6 13.2-5.8 26.6-.7 50.7 4.6 22.2 5.9 30.5 5.1 33.7-1.5 5.7-17.1 23.8-31.7 36.6-17.9 15.7-46.3 31.9-74.5 42.5-6.6 2.5-27.8 9.5-47.2 15.6-57.2 18-73.4 25.1-94.9 41.7-24.9 19.2-40 47.9-45.9 87-.8 5.5-1.9 20.2-2.5 32.9-1.7 39.1-5 69.5-12.1 112.5-9.6 58.5-25.3 129.5-46.3 209.4-4.2 15.9-7.5 29-7.3 29.2.1.1 3.8-4.3 8.2-9.9 4.3-5.6 14.3-18.3 22-28.2 7.8-9.9 52.3-66.8 99-126.5 46.6-59.7 88.1-112.7 92.2-117.8l7.4-9.2-2.6-3.8c-7.9-11.6-11.5-30.9-8.1-44.2 5.3-21.2 21.7-38.5 41.2-43.5 20.8-5.3 40.9.1 55.9 14.9 23.3 23 23.4 59 .1 82-11.5 11.4-24.2 16.6-40.6 16.6-4.8 0-11.2-.7-14.5-1.6-3.3-.9-6.8-1.7-7.7-1.8-1.2-.1-38.8 47.2-115.6 145.4-62.7 80-113.8 145.6-113.7 145.8.2.2 9.7-4.8 21.2-11.1 130.2-71.4 225.6-114.5 302.3-136.6 29.5-8.5 46.7-15.8 63.6-27 22.1-14.7 37.5-34.1 46.7-59.1 6.6-17.8 9.9-37.4 12.2-72.5 2.7-42.3 4.5-64.7 6.1-76.5 3-23.1 10.4-49.9 18.8-68.3 7.8-17.3 26-44.2 31.4-46.7 3.5-1.6 17.3-3 29.7-3 19.4 0 37.4-3.5 47.1-9.1 9-5.1 17.2-16.1 19-25.4.4-2.4 1.7-3.7 5.3-5.8 14.7-8.2 21.9-23.5 20.8-43.8-.3-5.3-1.5-14.2-2.7-19.8-1.1-5.6-1.8-10.7-1.4-11.3.4-.6 42.3-51.5 93.3-113.2 151.7-183.8 155.1-187.9 155.1-188.7 0-2.1-66.2-57.7-103-86.4-38.3-29.9-103.8-77.5-106.7-77.5-.4 0-38.4 50.7-84.3 112.7z"/><path d="M2411 2857.7c-4.1.1-24.1.7-44.5 1.3-98.1 2.8-227.2 12.3-307.5 22.6-6.3.8-18.5 2.4-27 3.5-98 12.5-186.8 29.6-305 58.4-174.9 42.7-293.7 64.2-422.5 76.5-6 .5-26.2 1.5-44.8 2-66.6 2-115.4-1.9-157.7-12.5-27.1-6.8-42.8-14.4-55.6-27-14.6-14.4-17.7-29.6-9.4-47.2 12.1-26 58.3-45.5 111.3-47 15.9-.5 17.7-.7 17.7-2.3 0-.9-1.1-2.2-2.4-2.8-6.4-2.9-15.7-3.6-45.6-3.6-29.9 0-30.7.1-40.2 2.7-45.5 12.4-70.8 38.5-70.8 73.2 0 9.8 2.3 18.4 7.7 29.5 4 8.2 6 10.9 14.7 19.5 11.4 11.3 19.2 16.9 35.1 24.8 13.2 6.6 15.9 7.7 29.8 12.8 29.3 10.6 65.8 17.2 116.2 20.9 33.7 2.5 101.4 2.3 139-.5 3.3-.3 13-.9 21.5-1.5 71.1-4.9 160.8-18 254-36.9 36.7-7.4 54.5-11.3 126.5-27.6 161.8-36.6 304.9-57.4 465.5-67.5 62.1-3.9 197.7-1.8 286 4.5 4.1.3 10.4.8 14 1 3.6.3 9.7.7 13.5 1 3.9.3 13.8 1 22 1.5 17.8 1.2 107.9 8.6 121.5 10 10.8 1 14.9 1.4 38 3.5 9.1.8 36.1 3.3 60 5.5 100.4 9.3 124.2 11.4 177 15.5 123.9 9.6 210.2 13.1 261 10.5 72.9-3.7 113-10.1 113-17.9 0-11.3-61.5-25.1-213-47.6-14.6-2.2-32.5-4.6-85-11.5-8-1-39.9-5.3-71-9.5s-63-8.5-71-9.5c-8-1.1-32.9-4.4-55.5-7.4-22.5-3-53.6-7.1-69-9.1-15.4-2-34.5-4.4-42.5-5.5-15.4-2-21-2.4-52.5-4-42.2-2.1-93.8-3-168-2.8-42.3.1-80.4.3-84.5.5z"/></svg>